<svg xmlns="http://www.w3.org/2000/svg" viewBox="0 0 512 512">
  <defs>
    <linearGradient id="bg" x1="0%" y1="0%" x2="100%" y2="100%">
      <stop offset="0%" stop-color="#f6efe0" />
      <stop offset="100%" stop-color="#d7c1a0" />
    </linearGradient>
  </defs>
  <rect width="512" height="512" rx="120" fill="url(#bg)" />
  <rect x="108" y="90" width="296" height="332" rx="42" fill="#fffaf2" stroke="#4b3728" stroke-width="18" />
  <path d="M170 166h172M170 230h172M170 294h110" stroke="#7a5e49" stroke-width="22" stroke-linecap="round" />
  <path d="M334 324c30-16 44 3 44 22 0 24-24 44-49 60-11 7-24 15-37 24l-12-21c12-8 24-15 35-22 23-14 39-28 39-41 0-7-4-12-11-12-8 0-18 6-28 18l-22-17c14-18 28-28 41-35Z" fill="#d87b5e" />
</svg>

